<?xml version="1.0" encoding="utf-8"?>
<!-- Generator: Adobe Illustrator 25.4.1, SVG Export Plug-In . SVG Version: 6.00 Build 0)  -->
<svg version="1.1" id="レイヤー_1" xmlns="http://www.w3.org/2000/svg" xmlns:xlink="http://www.w3.org/1999/xlink" x="0px"
	 y="0px" viewBox="0 0 68 68" style="enable-background:new 0 0 68 68;" xml:space="preserve">
<style type="text/css">
	.st0{fill:#FFFFFF;}
</style>
<g>
	<path class="st0" d="M37.5,60.7c-16.8,0-30.4-13.6-30.4-30.3c0-14.7,10.5-27,24.5-29.7C14.3,2,0.6,16.4,0.6,34
		c0,18.4,15,33.3,33.4,33.3c17.8,0,32.4-13.9,33.4-31.4C64.8,50,52.4,60.7,37.5,60.7z"/>
	<path class="st0" d="M25.5,48.4c-10.4-9.6-11-25.8-1.4-36.2c8.4-9.1,22-10.7,32.2-4.3C44.8-1.3,28.1-0.2,18,10.7
		C7.4,22.1,8.1,39.9,19.6,50.4c11,10.2,28,10,38.7-0.3C48.6,57.4,34.7,56.9,25.5,48.4z"/>
	<path class="st0" d="M25.3,32.5C25.1,20.9,34.4,11.3,46,11.2c10.2-0.1,18.8,7,20.8,16.7c-1-12-11.1-21.3-23.3-21.2
		C30.7,6.9,20.5,17.4,20.7,30.2c0.2,12.3,10,22.3,22.1,22.8C33,51.3,25.4,42.8,25.3,32.5z"/>
	<g>
		<path class="st0" d="M34.3,27.5l-0.6,2.8h0.1c1,0,1.8-1.1,1.8-2c0-0.7-0.5-1.4-1.7-1.4c-1.5,0-3.1,1-3.1,3.1
			c0,0.6,0.2,0.7,0.2,0.9c-0.8,0-1.3-0.3-1.3-1.2c0-1.7,2.2-3.3,4.6-3.3c1.9,0,2.7,1,2.7,2c0,0.7-0.4,1.5-1.3,2
			c1.1,0.2,1.5,1.1,1.5,2c0,1.2-0.7,3.6-2.8,3.6c-0.5,0-1.2-0.2-1.2-0.9c0-0.2,0.1-0.4,0.2-0.7c0.3,0.3,0.6,0.5,0.8,0.5
			c0.9,0,1.2-1.3,1.2-2.3c0-0.9-0.3-1.6-1.2-1.6c-0.1,0-0.4,0-0.6,0l-1,4.8h-1.8l1.7-8L34.3,27.5z"/>
		<path class="st0" d="M40.2,29.5L40,30.2c0.4-0.4,0.9-0.8,1.5-0.8c0.6,0,0.9,0.5,0.9,0.9c0,0.4-0.3,0.9-0.9,0.9
			c-0.7,0-0.4-0.8-0.7-0.8c-0.4,0-0.6,0.2-0.9,0.5l-1,4.8H37l1.3-6.3H40.2z"/>
		<path class="st0" d="M44.9,29.5L44,33.7c0,0.2-0.1,0.3-0.1,0.4c0,0.4,0.2,0.5,0.5,0.5c0.5,0,0.9-0.5,1.1-1.1h0.5
			c-0.7,2.1-2,2.3-2.6,2.3c-0.8,0-1.3-0.5-1.3-1.5c0-0.2,0-0.5,0.1-0.8l0.9-4H44.9z M44.4,26.8c0.6,0,1,0.5,1,1s-0.5,1-1,1
			s-1-0.4-1-1S43.8,26.8,44.4,26.8z"/>
		<path class="st0" d="M52.2,26.9l-1.4,6.8c0,0.2-0.1,0.3-0.1,0.4c0,0.4,0.2,0.5,0.5,0.5c0.5,0,0.8-0.5,1-1.1h0.5
			c-0.7,2.1-1.9,2.3-2.5,2.3s-1.1-0.4-1.2-1.1c-0.4,0.6-1,1.2-1.9,1.2c-0.9,0-1.7-0.5-1.7-2c0-1.7,1-4.4,3.2-4.4c0.7,0,1,0.3,1,0.6
			v0.1l0.6-2.9L52.2,26.9z M49,33.5l0.6-2.9c0-0.2-0.1-0.4-0.5-0.4c-1.1,0-1.8,2.3-1.8,3.4c0,1,0.4,1,0.6,1
			C48.3,34.6,48.8,34.2,49,33.5L49,33.5z"/>
		<path class="st0" d="M58.3,29.5L57,35.3c0.8-0.3,1.2-0.7,1.6-1.8h0.5c-0.5,1.7-1.4,2.1-2.2,2.4l-0.2,0.9c-0.4,1.8-1.4,2.1-2.3,2.1
			c-0.8,0-1.4-0.4-1.4-1.2c0-1.1,1.1-1.6,2.1-1.9l0.2-0.7c-0.4,0.4-0.9,0.7-1.5,0.7c-0.9,0-1.7-0.5-1.7-2c0-1.7,1-4.4,3.2-4.4
			c0.7,0,1,0.3,1,0.6v0.1l0.1-0.7H58.3z M54.2,37.9c0.3,0,0.6-0.4,0.7-1.1l0.1-0.4c-0.6,0.2-1.2,0.6-1.2,1.1
			C53.7,37.7,53.9,37.9,54.2,37.9z M53.9,33.6c0,1,0.4,1,0.6,1c0.3,0,0.8-0.3,1-1l0.6-3c0-0.1-0.1-0.5-0.5-0.5
			C54.6,30.2,53.9,32.4,53.9,33.6z"/>
		<path class="st0" d="M61.1,34.6c0.8,0,1.6-0.3,2.5-1.2c-0.5,1.4-2.2,2.4-3.2,2.4c-1.2,0-2-0.6-2-2c0-1.4,0.8-4.5,3.4-4.5
			c1.1,0,1.4,0.6,1.4,1.2c0,1.5-1.4,2.6-2.9,2.7c0,0.1,0,0.3,0,0.4C60.3,34.4,60.6,34.6,61.1,34.6z M61.9,30c-0.6,0-1.3,1.4-1.5,2.6
			c1-0.1,1.8-1,1.8-2.1C62.3,30.2,62.2,30,61.9,30z"/>
	</g>
</g>
</svg>
