<svg xmlns="http://www.w3.org/2000/svg" viewBox="0 0 230.17 229.42"><defs><style>.cls-1{fill:#1e80a5;}.cls-2{fill:#1b8bc6;}.cls-3{fill:#233f76;}.cls-4{fill:#312b2a;}</style></defs><g id="レイヤー_2" data-name="レイヤー 2"><g id="レイヤー_1-2" data-name="レイヤー 1"><path class="cls-1" d="M127.15,206.82c-57.81,0-104.68-46.74-104.68-104.39A104.49,104.49,0,0,1,106.94,0C47.18,4.21,0,53.89,0,114.56,0,178,51.57,229.42,115.18,229.42c61.43,0,111.63-48,115-108.4A104.63,104.63,0,0,1,127.15,206.82Z"/><path class="cls-2" d="M85.7,164.3A88.08,88.08,0,0,1,191.81,24.67a96.94,96.94,0,1,0,6.88,145.59A88.3,88.3,0,0,1,85.7,164.3Z"/><path class="cls-3" d="M85,109.55a72.33,72.33,0,0,1,143.13-16,79.61,79.61,0,1,0-82.68,86.57A72.51,72.51,0,0,1,85,109.55Z"/><path class="cls-4" d="M116.09,92.25l-2,9.64h.26c3.47,0,6.25-3.78,6.25-7,0-2.48-1.61-4.69-5.73-4.69-5.08,0-10.86,3.39-10.86,10.55a6.08,6.08,0,0,0,.61,3c-2.86,0-4.64-1.08-4.64-4,0-6,7.55-11.51,15.75-11.51,6.39,0,9.25,3.35,9.25,6.91a8.17,8.17,0,0,1-4.34,6.9c3.69.74,5.12,3.73,5.12,7,0,4.16-2.25,12.5-9.5,12.5-1.87,0-4.3-.56-4.3-3.21a7,7,0,0,1,.56-2.52,3.92,3.92,0,0,0,2.91,1.56c3.17,0,4.3-4.51,4.3-7.81,0-3-1-5.52-4.13-5.52-.34,0-1.21,0-2,.13L110,120.73h-6.25l5.9-27.61Z"/><path class="cls-4" d="M136.45,99l-.57,2.69c1.52-1.31,3.17-2.69,5.25-2.69a3.21,3.21,0,0,1-.13,6.42c-2.43,0-1.21-2.86-2.51-2.86s-2.09.65-3.17,1.65l-3.48,16.49h-6.25l4.6-21.7Z"/><path class="cls-4" d="M152.77,99l-3.13,14.76a5.92,5.92,0,0,0-.17,1.38c0,1.22.56,1.61,1.78,1.61,1.69,0,3.25-1.65,3.91-3.82H157c-2.48,7.08-6.77,8-9.12,8-2.6,0-4.64-1.56-4.64-5.21a14.74,14.74,0,0,1,.34-2.82l3-13.93Zm-2-9.25a3.45,3.45,0,1,1,0,6.9,3.45,3.45,0,0,1,0-6.9Z"/><path class="cls-4" d="M177.82,90.34l-5,23.45a5.92,5.92,0,0,0-.17,1.38c0,1.22.56,1.61,1.78,1.61,1.69,0,2.87-1.65,3.52-3.82h1.82c-2.47,7.08-6.38,7.77-8.73,7.77a4,4,0,0,1-4.25-3.73c-1.3,2-3.34,4-6.43,4s-5.77-1.82-5.77-7c0-5.86,3.6-15.19,11.16-15.19,2.47,0,3.51,1,3.51,2.21v.18l2.13-10ZM166.75,113l2.12-9.94a1.71,1.71,0,0,0-1.78-1.52c-3.69,0-6.07,7.81-6.07,11.89,0,3.35,1.38,3.39,2.17,3.39,1.21,0,3-1.21,3.56-3.6Z"/><path class="cls-4" d="M198.78,99l-4.29,20.14c2.64-1,4.25-2.43,5.47-6.21h1.82c-1.69,5.73-5,7.38-7.68,8.12l-.66,3.12c-1.3,6.21-4.94,7.38-7.81,7.38-2.65,0-4.86-1.38-4.86-4.21,0-3.64,3.82-5.47,7.07-6.46l.52-2.31a6.94,6.94,0,0,1-5.2,2.39c-3,0-5.78-1.82-5.78-7,0-5.86,3.6-15.19,11.16-15.19,2.47,0,3.52,1,3.52,2.21v.26l.47-2.25ZM184.63,128.2c.91,0,2-1.3,2.52-3.87l.26-1.25c-2.21.82-4.25,2-4.25,3.69A1.48,1.48,0,0,0,184.63,128.2Zm-.82-14.81c0,3.35,1.39,3.39,2.17,3.39,1.17,0,2.86-1.17,3.47-3.39l2.21-10.28a1.71,1.71,0,0,0-1.78-1.61C186.19,101.5,183.81,109.31,183.81,113.39Z"/><path class="cls-4" d="M208.46,116.87c2.74.1,5.44-1,8.55-4.06-1.72,4.77-7.46,8.18-10.93,8.18-4,0-6.73-2-6.73-6.9s2.82-15.45,11.72-15.45c3.86,0,4.77,2,4.77,4.16,0,5-4.77,8.86-10,9.16,0,.44-.09.91-.09,1.3C205.77,116,207,116.81,208.46,116.87Zm3-15.93c-2.17,0-4.34,4.81-5.26,8.94,3.39-.18,6.34-3.52,6.34-7.16C212.5,101.63,212.24,100.94,211.42,100.94Z"/></g></g></svg>